<svg width="30" height="30" viewBox="0 0 30 30" fill="none" xmlns="http://www.w3.org/2000/svg">
<rect x="0.509766" y="0.5" width="28.2913" height="29" rx="4.5" stroke="#87C240"/>
<path d="M22.0778 11.6691C21.9916 11.347 21.8236 11.0554 21.5919 10.8252C21.3535 10.588 21.0614 10.4183 20.7431 10.3322C19.5518 10.0033 14.7788 10.0033 14.7788 10.0033C12.7891 9.97958 10.7998 10.0839 8.82219 10.3156C8.50386 10.4081 8.21229 10.5816 7.97341 10.8206C7.7387 11.0572 7.56869 11.3489 7.47988 11.6685C7.26654 12.8723 7.16289 14.0947 7.17031 15.3191C7.1627 16.5424 7.2661 17.7643 7.47988 18.9697C7.56679 19.288 7.73616 19.5784 7.97151 19.8129C8.20686 20.0475 8.49993 20.2169 8.82219 20.3066C10.0294 20.6349 14.7788 20.6349 14.7788 20.6349C16.7711 20.6586 18.763 20.5543 20.7431 20.3226C21.0614 20.2364 21.3535 20.0667 21.5919 19.8295C21.8266 19.595 21.9934 19.3033 22.0771 18.9857C22.2961 17.7823 22.4025 16.5594 22.395 15.3344C22.4114 14.1042 22.3051 12.8762 22.0778 11.6691ZM13.2614 17.5942V13.0446L17.2325 15.3198L13.2614 17.5942Z" fill="#87C240"/>
</svg>
