<svg width="30" height="30" viewBox="0 0 30 30" fill="none" xmlns="http://www.w3.org/2000/svg">
<rect x="0.519775" y="0.5" width="28.2913" height="29" rx="4.5" stroke="#87C240"/>
<path fill-rule="evenodd" clip-rule="evenodd" d="M7.83081 9.2213C7.83081 8.8974 7.95644 8.58675 8.18007 8.35771C8.4037 8.12867 8.70701 8 9.02326 8H20.9102C21.0669 7.99974 21.2221 8.03114 21.367 8.09241C21.5119 8.15367 21.6435 8.2436 21.7544 8.35705C21.8653 8.47049 21.9532 8.60522 22.0132 8.75352C22.0732 8.90182 22.104 9.06078 22.1039 9.2213V21.3958C22.1041 21.5563 22.0733 21.7154 22.0135 21.8637C21.9536 22.0121 21.8657 22.1469 21.7549 22.2605C21.6441 22.374 21.5125 22.4641 21.3676 22.5255C21.2228 22.5869 21.0676 22.6185 20.9108 22.6184H9.02326C8.86661 22.6184 8.7115 22.5868 8.56678 22.5254C8.42206 22.464 8.29058 22.374 8.17984 22.2605C8.0691 22.147 7.98128 22.0123 7.92139 21.864C7.86151 21.7158 7.83073 21.5569 7.83081 21.3965V9.2213ZM13.4804 13.5736H15.4131V14.5677C15.692 13.9962 16.4057 13.4819 17.4781 13.4819C19.5341 13.4819 20.0213 14.6202 20.0213 16.7086V20.5772H17.9407V17.1844C17.9407 15.995 17.6617 15.3238 16.9533 15.3238C15.9704 15.3238 15.5616 16.0474 15.5616 17.1844V20.5772H13.4804V13.5736ZM9.91209 20.4861H11.9934V13.4819H9.91209V20.4861ZM12.2912 11.1974C12.2951 11.38 12.2634 11.5614 12.1979 11.7312C12.1324 11.901 12.0345 12.0557 11.9098 12.1862C11.7852 12.3167 11.6363 12.4204 11.472 12.4912C11.3077 12.562 11.1313 12.5984 10.9531 12.5984C10.7748 12.5984 10.5984 12.562 10.4341 12.4912C10.2698 12.4204 10.1209 12.3167 9.99628 12.1862C9.87164 12.0557 9.7737 11.901 9.70822 11.7312C9.64273 11.5614 9.61102 11.38 9.61495 11.1974C9.62265 10.8392 9.76701 10.4983 10.0171 10.2477C10.2672 9.99713 10.6032 9.85682 10.9531 9.85682C11.3029 9.85682 11.6389 9.99713 11.889 10.2477C12.1391 10.4983 12.2835 10.8392 12.2912 11.1974Z" fill="#87C240"/>
</svg>
